<svg width="163" height="56" viewBox="0 0 163 56" fill="none" xmlns="http://www.w3.org/2000/svg">
<g clip-path="url(#clip0_92_5895)">
<path d="M134.786 0H28.0482C12.559 0 0 12.5367 0 27.9985C0 43.4603 12.559 55.9969 28.0482 55.9969H134.786C150.278 55.9969 162.834 43.4603 162.834 27.9985C162.834 12.5367 150.278 0 134.786 0Z" fill="#2A70B8"/>
<path d="M28.0513 3.90845C41.3804 3.90845 52.1873 14.6962 52.1873 28.0016C52.1873 41.3071 41.3804 52.0948 28.0513 52.0948C14.7222 52.0948 3.91528 41.3071 3.91528 27.9986C3.91528 14.69 14.7191 3.90845 28.0513 3.90845Z" fill="#263D8A"/>
<path d="M20.9664 18.4389H20.1624C18.6344 18.4389 17.8028 19.2965 17.8028 21.0179V29.3093C17.8028 31.4442 17.0818 32.1915 15.3849 32.1915C14.0533 32.1915 12.9701 31.6096 12.1079 30.5559C12.025 30.4457 10.2761 31.2757 10.2761 33.3279C10.2761 35.5455 12.3564 36.9054 16.2196 36.9054C20.9111 36.9054 23.3873 34.547 23.3873 29.392V21.0179C23.3873 19.3026 22.5527 18.4389 20.9694 18.4389M39.6744 22.4881C35.1178 22.4881 32.0924 25.3703 32.0924 29.6707C32.0924 33.9711 35.0074 36.9085 39.5915 36.9085C44.1757 36.9085 47.1459 34.0814 47.1459 29.6983C47.1459 25.3703 44.1757 22.485 39.6775 22.485M39.6222 32.8256C37.8426 32.8256 36.6213 31.5238 36.6213 29.6646C36.6213 27.8054 37.8732 26.5312 39.6222 26.5312C41.3712 26.5312 42.6231 27.836 42.6231 29.6922C42.6231 31.4932 41.3467 32.8256 39.6253 32.8256H39.6222ZM28.2446 22.6229H27.6892C26.3299 22.6229 25.302 23.26 25.302 25.2019V34.0753C25.302 36.0447 26.3023 36.6543 27.7445 36.6543H28.2998C29.6622 36.6543 30.6318 35.9865 30.6318 34.0753V25.2019C30.6318 23.2048 29.6898 22.6229 28.2415 22.6229M27.9378 16.1907C26.2164 16.1907 25.1333 17.1616 25.1333 18.687C25.1333 20.2123 26.244 21.2109 28.0206 21.2109C29.7972 21.2109 30.8251 20.2399 30.8251 18.687C30.8251 17.1341 29.7144 16.1907 27.9378 16.1907Z" fill="white"/>
<path d="M66.3235 36.6544H70.9475L68.6953 22.5403H64.2768L56.2959 36.6544H60.7574L61.9449 34.3265H66.1854L66.3235 36.6544ZM63.4637 31.3432L65.6914 26.9724H65.7527L66.0105 31.3432H63.4637Z" fill="white"/>
<path d="M74.9273 22.5403H79.3887L76.4001 36.6544H71.9386L74.9273 22.5403Z" fill="white"/>
<path d="M81.1776 22.5402H88.3791C89.3886 22.5402 90.2508 22.6872 90.9688 22.9782C91.6838 23.2722 92.23 23.6888 92.6043 24.234C92.9786 24.7792 93.1658 25.4193 93.1658 26.1545C93.1658 26.9447 92.9786 27.6247 92.6043 28.1974C92.23 28.7702 91.7605 29.2174 91.202 29.5451C90.6436 29.8729 90.0698 30.1026 89.4837 30.2404V30.2803C90.0422 30.4855 90.4718 30.7856 90.7725 31.1777C91.0732 31.5728 91.2818 32.1915 91.3953 33.0369C91.5119 33.8823 91.5488 35.086 91.5089 36.6512H86.8449C86.9001 36.2561 86.94 35.8273 86.9677 35.3648C86.9953 34.6174 86.9677 33.9864 86.8848 33.4749C86.802 32.9634 86.6608 32.5867 86.4552 32.3416C86.2926 32.164 86.0778 32.0261 85.8109 31.922C85.5439 31.8209 85.2279 31.7689 84.8597 31.7689H83.6937L82.6504 36.6512H78.189L81.1776 22.5371V22.5402ZM87.6642 28.7794C88.0048 28.6232 88.2656 28.4057 88.4405 28.127C88.6185 27.8483 88.7074 27.5236 88.7074 27.156C88.7074 26.666 88.5448 26.3168 88.2165 26.1055C87.8882 25.8941 87.4187 25.79 86.805 25.79H84.964L84.2675 29.0183H86.4153C86.9063 29.0183 87.3236 28.9387 87.6642 28.7825V28.7794Z" fill="white"/>
<path d="M108.094 22.5403H112.555L109.566 36.6544H105.105L108.094 22.5403Z" fill="white"/>
<path d="M114.461 22.5403H122.092C122.938 22.5403 123.647 22.6689 124.218 22.9293C124.792 23.1896 125.221 23.5419 125.507 23.9921C125.792 24.4424 125.936 24.9386 125.936 25.4838C125.936 26.2465 125.718 26.9081 125.283 27.4655C124.847 28.023 124.218 28.4794 123.402 28.8347V28.8745C124.111 29.1471 124.654 29.5545 125.028 30.0997C125.402 30.6449 125.59 31.2911 125.59 32.0416C125.59 32.9268 125.338 33.717 124.832 34.4123C124.325 35.1076 123.638 35.6559 122.764 36.0571C121.889 36.4584 120.923 36.6605 119.858 36.6605H111.469L114.457 22.5464L114.461 22.5403ZM120.201 33.3035C120.496 33.1687 120.723 32.9727 120.886 32.7215C121.048 32.4704 121.131 32.1672 121.131 31.8118C121.131 31.4045 120.999 31.089 120.732 30.8715C120.465 30.6541 120.06 30.5438 119.514 30.5438H117.244L116.608 33.5057H119.106C119.542 33.5057 119.907 33.4383 120.201 33.3004V33.3035ZM120.916 27.9617C121.183 27.8453 121.386 27.683 121.53 27.4716C121.674 27.2603 121.745 27.0183 121.745 26.7457C121.745 26.5007 121.693 26.2985 121.591 26.1423C121.49 25.9861 121.343 25.8697 121.153 25.7962C120.962 25.7227 120.717 25.6829 120.416 25.6829H118.268L117.738 28.1332H119.99C120.346 28.1332 120.656 28.075 120.919 27.9587L120.916 27.9617Z" fill="white"/>
<path d="M128.885 22.5403H140.22L139.505 25.8912H132.65L132.181 28.0567H138.483L137.808 31.1625H131.527L131.076 33.3066H138.36L137.645 36.6574H125.899L128.888 22.5433L128.885 22.5403Z" fill="white"/>
<path d="M142.205 22.5402H149.407C150.416 22.5402 151.278 22.6872 151.996 22.9782C152.711 23.2722 153.257 23.6888 153.632 24.234C154.006 24.7792 154.193 25.4193 154.193 26.1545C154.193 26.9447 154.006 27.6247 153.632 28.1974C153.257 28.7702 152.788 29.2174 152.229 29.5451C151.671 29.8729 151.097 30.1026 150.511 30.2404V30.2803C151.07 30.4855 151.499 30.7856 151.8 31.1777C152.101 31.5728 152.309 32.1915 152.423 33.0369C152.539 33.8823 152.576 35.086 152.536 36.6512H147.872C147.928 36.2561 147.967 35.8273 147.995 35.3648C148.023 34.6174 147.995 33.9864 147.912 33.4749C147.829 32.9634 147.688 32.5867 147.483 32.3416C147.32 32.164 147.105 32.0261 146.838 31.922C146.571 31.8209 146.255 31.7689 145.887 31.7689H144.721L143.678 36.6512H139.216L142.205 22.5371V22.5402ZM148.692 28.7794C149.032 28.6232 149.293 28.4057 149.468 28.127C149.646 27.8483 149.735 27.5236 149.735 27.156C149.735 26.666 149.572 26.3168 149.244 26.1055C148.916 25.8941 148.446 25.79 147.832 25.79H145.991L145.295 29.0183H147.443C147.934 29.0183 148.351 28.9387 148.692 28.7825V28.7794Z" fill="white"/>
<path d="M105.906 25.931L106.621 22.5403H97.0719H94.3257L94.2888 22.721C95.0375 23.3121 95.4149 24.4301 95.0559 26.0351C94.9823 26.369 92.8099 36.6574 92.8099 36.6574H97.2713L98.3974 31.429H104.025L104.678 28.2833H99.051L99.5419 25.934H105.906V25.931Z" fill="white"/>
</g>
<defs>
<clipPath id="clip0_92_5895">
<rect width="162.837" height="56" fill="white"/>
</clipPath>
</defs>
</svg>
