<svg width="59" height="17" viewBox="0 0 59 17" fill="none" xmlns="http://www.w3.org/2000/svg">
<g clip-path="url(#clip0_814_29112)">
<path d="M49.4804 17C49.3793 16.976 49.2807 16.9431 49.1783 16.9305C48.3527 16.8293 47.5702 16.5841 46.8167 16.2389C46.0923 15.9077 45.4336 15.4804 44.8293 14.9621C44.1252 14.359 43.531 13.6624 43.0607 12.8672C42.5449 11.9962 42.1757 11.0632 42.0165 10.0594C41.9469 9.62198 41.9153 9.17698 41.8888 8.73323C41.8243 7.64221 42.0165 6.58911 42.3907 5.56762C42.6865 4.75852 43.0847 3.99872 43.6309 3.32995C43.952 2.93551 44.2958 2.55498 44.665 2.20479C45.158 1.73829 45.7181 1.35776 46.3161 1.03159C47.0089 0.65485 47.7371 0.3704 48.5082 0.211108C48.9254 0.125141 49.3527 0.0771004 49.7788 0.0341168C50.0835 0.00377549 50.3932 -0.0113952 50.6991 0.00251126C51.3654 0.0328526 52.0215 0.126405 52.6675 0.303396C53.3287 0.48418 53.9545 0.750931 54.5537 1.0771C55.067 1.35776 55.5398 1.6991 55.9836 2.08342C56.6157 2.63209 57.1618 3.25283 57.6056 3.96079C58.153 4.83184 58.5487 5.76737 58.7409 6.78254C58.7952 7.07078 58.8268 7.36281 58.8698 7.65232C58.8723 7.67255 58.8951 7.69025 58.9077 7.70921V9.30972C58.8951 9.32868 58.8711 9.34638 58.8698 9.36534C58.8344 9.98102 58.6865 10.5739 58.5019 11.158C58.3262 11.7143 58.0759 12.2402 57.7889 12.7484C57.2895 13.6359 56.6334 14.3932 55.8597 15.0455C55.3148 15.5044 54.713 15.8837 54.0645 16.1896C53.2807 16.5588 52.4678 16.8179 51.6068 16.9267C51.5044 16.9393 51.4058 16.9722 51.306 16.9962H49.483L49.4804 17ZM50.3856 14.091C53.4956 14.1213 55.9381 11.5815 55.9886 8.64727C56.0455 5.39442 53.4867 3.09101 50.7636 2.93424C49.1909 2.84322 47.8041 3.3173 46.6347 4.37672C45.4792 5.4235 44.8546 6.73955 44.794 8.29202C44.6663 11.5803 47.3704 14.139 50.3856 14.091Z" fill="black"/>
<path d="M13.502 17C13.234 16.3654 12.9672 15.7295 12.6992 15.0948C12.588 14.8293 12.4754 14.5638 12.3667 14.2971C12.3263 14.1997 12.2668 14.1631 12.1556 14.1644C10.8673 14.1694 9.5791 14.1719 8.29086 14.1656C7.07721 14.1606 5.86482 14.1479 4.65243 14.1327C4.52853 14.1315 4.45395 14.158 4.40085 14.2819C4.09238 14.9848 3.77506 15.6839 3.46027 16.3843C3.42866 16.4551 3.37177 16.5196 3.35786 16.5929C3.30477 16.8862 3.11387 16.9128 2.85976 16.9001C2.31741 16.8736 1.77506 16.8761 1.23144 16.8635C0.887574 16.8559 0.543705 16.8445 0.199836 16.8306C0.135361 16.8281 0.0708858 16.8053 0.00893888 16.7927C-0.018874 16.5841 0.00641043 16.4058 0.101227 16.225C0.517156 15.4336 0.921708 14.6359 1.33132 13.8407C1.66254 13.1972 1.99503 12.555 2.32626 11.9115C2.66633 11.2554 3.00641 10.5992 3.34649 9.94311C3.68656 9.28698 4.02537 8.62958 4.36545 7.97345C4.70679 7.31226 5.04813 6.65108 5.38947 5.98989C5.72828 5.33376 6.06836 4.67636 6.40843 4.02023C6.74977 3.35904 7.08985 2.69659 7.43245 2.03666C7.703 1.51454 7.9786 0.99368 8.26052 0.453857C8.35281 0.621999 8.4451 0.778763 8.52727 0.940583C8.86608 1.60304 9.2011 2.26928 9.53991 2.93173C9.91412 3.66372 10.2921 4.39317 10.6676 5.1239C11.0342 5.83565 11.4021 6.54867 11.7687 7.26043C12.148 7.99621 12.526 8.73072 12.9053 9.4665C13.2795 10.1922 13.6537 10.9178 14.0279 11.6448C14.3971 12.3616 14.7662 13.0784 15.1354 13.7952C15.5121 14.5259 15.8863 15.2566 16.2643 15.9874C16.3996 16.2478 16.5399 16.5057 16.6878 16.7851C16.6234 16.7939 16.5854 16.8015 16.5462 16.804C15.9912 16.8357 15.4362 16.866 14.8825 16.9001C14.593 16.9178 14.3035 16.9393 14.014 16.9633C13.9786 16.9659 13.9445 16.9886 13.9103 17.0025H13.502V17ZM10.7321 11.2882C9.86608 9.62706 9.014 7.99115 8.13663 6.30847C7.4274 7.99115 6.73587 9.63211 6.03675 11.2882H10.7321Z" fill="black"/>
<path d="M34.335 17C34.3388 16.9267 34.3439 16.8546 34.3439 16.7813C34.3439 11.2794 34.3439 5.77876 34.3439 0.276867C34.3439 0.203543 34.3439 0.131482 34.3439 0.0442505H36.9962C36.9962 0.117575 36.9962 0.189636 36.9962 0.260433C36.9962 5.76739 36.9962 11.2731 36.9962 16.78C36.9962 16.8534 37.0025 16.9254 37.005 16.9987H34.3337L34.335 17Z" fill="black"/>
<path d="M20.3073 13.3553C20.3907 13.4008 20.4855 13.44 20.569 13.4969C20.9419 13.7522 21.3768 13.823 21.8067 13.8989C22.0911 13.9482 22.3806 13.9886 22.6689 13.9912C23.0671 13.995 23.459 13.9292 23.8332 13.7813C24.8079 13.3957 25.3111 12.6271 25.5412 11.6511C25.6056 11.3768 25.636 11.0898 25.6373 10.8078C25.6436 8.07839 25.6436 5.34894 25.6398 2.61948C25.6398 2.10874 25.6183 1.59799 25.6107 1.08724C25.6056 0.764867 25.6107 0.44249 25.6107 0.108735C25.6929 0.102414 25.7371 0.0960931 25.7826 0.0960931C26.0342 0.0960931 26.2858 0.0986215 26.5361 0.0960931C27.0633 0.0872435 27.5905 0.0758655 28.1177 0.0657517C28.1227 0.0657517 28.1278 0.0657517 28.1328 0.0657517C28.4198 0.0455242 28.4135 0.0455242 28.4211 0.333767C28.4375 0.936801 28.4615 1.53984 28.483 2.14287C28.4931 2.44375 28.507 2.7459 28.5134 3.04679C28.526 3.68775 28.5361 4.32997 28.545 4.97093C28.5563 5.79521 28.5715 6.61948 28.574 7.44375C28.5753 7.94944 28.5601 8.45513 28.5437 8.95956C28.5285 9.41594 28.5184 9.87359 28.4792 10.3287C28.4198 11.0177 28.3364 11.7042 28.2656 12.3919C28.2062 12.9633 28.0443 13.5006 27.7649 14.0038C27.5513 14.3894 27.2972 14.7434 27.0026 15.0746C26.4818 15.6612 25.861 16.1075 25.1568 16.44C24.6044 16.7017 24.0254 16.885 23.411 16.9279C23.0469 16.9532 22.6802 16.9773 22.3174 16.9558C21.7801 16.9229 21.2605 16.7851 20.7611 16.5828C20.3086 16.3995 19.8876 16.1606 19.4944 15.8698C19.3617 15.7712 19.2289 15.6726 19.105 15.5639C19.0759 15.5386 19.0582 15.4577 19.0772 15.4261C19.4716 14.7434 19.8724 14.0645 20.2732 13.3843C20.2782 13.3768 20.2896 13.373 20.3086 13.3591L20.3073 13.3553Z" fill="black"/>
</g>
<defs>
<clipPath id="clip0_814_29112">
<rect width="58.9077" height="17" fill="white"/>
</clipPath>
</defs>
</svg>
