<svg xmlns="http://www.w3.org/2000/svg" viewBox="0 0 24 24" fill="none">
    <path
        d="M13.5598 8.99998H6.44977C5.64977 8.99998 5.00977 9.57998 5.00977 10.3V19.7C5.00977 20.42 5.65977 21 6.44977 21H13.5598C14.3598 21 14.9998 20.42 14.9998 19.7V10.3C14.9998 9.57998 14.3498 8.99998 13.5598 8.99998ZM9.99977 16.5C9.16977 16.5 8.49977 15.83 8.49977 15C8.49977 14.17 9.16977 13.5 9.99977 13.5C10.8298 13.5 11.4998 14.17 11.4998 15C11.4998 15.83 10.8298 16.5 9.99977 16.5Z"
        fill="#0f3cc9"></path>
    <path
        d="M14.8998 1.97998C14.3498 1.97998 13.8998 2.42998 13.8998 2.97998C13.8998 3.52998 14.3498 3.97998 14.8998 3.97998C17.6898 3.97998 19.9598 6.24998 19.9598 9.03998C19.9598 9.58998 20.4098 10.04 20.9598 10.04C21.5098 10.04 21.9598 9.58998 21.9598 9.03998C21.9598 5.13998 18.7898 1.97998 14.8998 1.97998Z"
        fill="#0f3cc9"></path>
    <path
        d="M14.4998 5.03998C13.9498 5.03998 13.4998 5.48998 13.4998 6.03998C13.4998 6.58998 13.9498 7.03998 14.4998 7.03998C15.8798 7.03998 16.9998 8.15998 16.9998 9.53998C16.9998 10.09 17.4498 10.54 17.9998 10.54C18.5498 10.54 18.9998 10.09 18.9998 9.53998C18.9998 7.05998 16.9798 5.03998 14.4998 5.03998Z"
        fill="#0f3cc9"></path>
</svg>