<svg width="154" height="40" viewBox="0 0 154 40" fill="none" xmlns="http://www.w3.org/2000/svg">
<g clip-path="url(#clip0_13_8106)">
<path d="M0 20C0 31.0457 8.95431 40 20 40C31.0457 40 40 31.0457 40 20C40 8.95431 31.0457 0 20 0C8.95431 0 0 8.95431 0 20Z" fill="#8F005D"/>
<path d="M29.0875 9.0625C29.0589 8.90078 28.9986 8.74629 28.9102 8.60786C28.8218 8.46944 28.707 8.34979 28.5723 8.25576C28.4377 8.16173 28.2858 8.09516 28.1254 8.05985C27.965 8.02455 27.7992 8.0212 27.6375 8.05L26.525 8.25L24.1 12.5L29.525 11.5375L29.0875 9.0625ZM23.325 8.8125L18.1875 9.725L15.7625 13.95L20.9 13.05L23.325 8.8125ZM15 10.2875L10.425 11.0875C10.1037 11.1428 9.8167 11.3214 9.62521 11.5853C9.43373 11.8491 9.35292 12.1774 9.40002 12.5L9.82502 15L12.5625 14.5125L15 10.2875ZM10 16.25V27.5C10 28.163 10.2634 28.7989 10.7323 29.2678C11.2011 29.7366 11.837 30 12.5 30H27.5C28.1631 30 28.7989 29.7366 29.2678 29.2678C29.7366 28.7989 30 28.163 30 27.5V16.25H10ZM22.825 24.125L19.5 26.625C19.3143 26.7643 19.0935 26.8491 18.8623 26.8699C18.6311 26.8908 18.3986 26.8468 18.191 26.743C17.9834 26.6392 17.8087 26.4796 17.6867 26.2822C17.5647 26.0847 17.5 25.8571 17.5 25.625V20.625C17.5 20.3929 17.5647 20.1653 17.6867 19.9678C17.8087 19.7704 17.9834 19.6108 18.191 19.507C18.3986 19.4031 18.6311 19.3592 18.8623 19.38C19.0935 19.4009 19.3143 19.4857 19.5 19.625L22.825 22.125C22.9803 22.2414 23.1063 22.3924 23.1931 22.566C23.2798 22.7395 23.325 22.9309 23.325 23.125C23.325 23.3191 23.2798 23.5104 23.1931 23.684C23.1063 23.8576 22.9803 24.0086 22.825 24.125Z" fill="white"/>
</g>
<g clip-path="url(#clip1_13_8106)">
<path d="M71.9775 15.89C71.0625 15.365 69.99 15.1025 68.76 15.1025C67.53 15.1025 66.48 15.3575 65.565 15.8675C64.65 16.3775 63.9525 17.1012 63.4725 18.0387C62.9925 18.9762 62.7525 20.0525 62.7525 21.2675C62.7525 22.4825 62.9925 23.5775 63.4725 24.5075C63.9525 25.4375 64.65 26.1612 65.565 26.6787C66.48 27.1962 67.5525 27.455 68.7825 27.455C70.0125 27.455 71.0775 27.1962 71.9775 26.6787C72.8775 26.1612 73.5713 25.4412 74.0588 24.5187C74.5463 23.5962 74.79 22.5125 74.79 21.2675C74.79 20.0225 74.55 18.9837 74.07 18.0612C73.59 17.1387 72.8925 16.415 71.9775 15.89ZM70.9762 23.1912C70.7887 23.7087 70.5075 24.11 70.1325 24.395C69.7575 24.68 69.3075 24.8225 68.7825 24.8225C68.2575 24.8225 67.8075 24.68 67.4325 24.395C67.0575 24.11 66.7725 23.705 66.5775 23.18C66.3825 22.655 66.285 22.025 66.285 21.29C66.285 20.555 66.3825 19.8762 66.5775 19.3437C66.7725 18.8112 67.0575 18.4062 67.4325 18.1287C67.8075 17.8512 68.25 17.7125 68.76 17.7125C69.33 17.7125 69.7988 17.8625 70.1663 18.1625C70.5338 18.4625 70.8075 18.8787 70.9875 19.4112C71.1675 19.9437 71.2575 20.57 71.2575 21.29C71.2575 22.01 71.1637 22.6737 70.9762 23.1912V23.1912ZM86.4 23.1237C86.115 23.5212 85.755 23.8212 85.32 24.0237C84.885 24.2262 84.375 24.3275 83.79 24.3275C82.935 24.3275 82.2225 24.1137 81.6525 23.6862C81.0825 23.2587 80.6587 22.67 80.3812 21.92C80.1037 21.17 79.965 20.315 79.965 19.355C79.965 18.395 80.1037 17.48 80.3812 16.745C80.6587 16.01 81.0825 15.4362 81.6525 15.0237C82.2225 14.6112 82.935 14.405 83.79 14.405C84.315 14.405 84.7875 14.4875 85.2075 14.6525C85.6275 14.8175 85.9837 15.0612 86.2762 15.3837C86.5687 15.7062 86.76 16.0775 86.85 16.4975H90.63C90.48 15.3725 90.0975 14.4125 89.4825 13.6175C88.8675 12.8225 88.08 12.2262 87.12 11.8287C86.16 11.4312 85.0575 11.2325 83.8125 11.2325C82.2225 11.2325 80.8388 11.5812 79.6613 12.2787C78.4838 12.9762 77.5838 13.94 76.9613 15.17C76.3388 16.4 76.0275 17.795 76.0275 19.355C76.0275 20.915 76.335 22.3325 76.95 23.5625C77.565 24.7925 78.4537 25.7562 79.6162 26.4537C80.7787 27.1512 82.17 27.5 83.79 27.5C85.08 27.5 86.2388 27.26 87.2663 26.78C88.2938 26.3 89.115 25.6175 89.73 24.7325C90.345 23.8475 90.69 22.835 90.765 21.695H86.9175C86.8575 22.25 86.685 22.7262 86.4 23.1237V23.1237ZM51.9088 22.01C51.9088 22.565 51.86 23.015 51.7625 23.36C51.665 23.705 51.4962 23.9675 51.2562 24.1475C51.0162 24.3275 50.6788 24.4175 50.2438 24.4175C49.6288 24.4175 49.1825 24.2375 48.905 23.8775C48.6275 23.5175 48.4887 22.94 48.4887 22.145H45V22.4825C45 23.5325 45.1987 24.4325 45.5962 25.1825C45.9938 25.9325 46.5862 26.5062 47.3737 26.9037C48.1612 27.3012 49.1325 27.5 50.2875 27.5C51.5475 27.5 52.5825 27.2937 53.3925 26.8812C54.2025 26.4687 54.8025 25.8537 55.1925 25.0362C55.5825 24.2187 55.7775 23.21 55.7775 22.01V11.5925H51.9075V22.01H51.9088ZM57.7587 27.14H61.2687V15.395H57.7587V27.14ZM60.5813 10.4675C60.2738 10.3025 59.925 10.22 59.535 10.22C59.115 10.22 58.7513 10.3025 58.4438 10.4675C58.1363 10.6325 57.8963 10.85 57.7238 11.12C57.5513 11.39 57.465 11.7125 57.465 12.0875C57.465 12.4625 57.5513 12.7887 57.7238 13.0662C57.8963 13.3437 58.1325 13.5687 58.4325 13.7412C58.7325 13.9137 59.0925 14 59.5125 14C59.9325 14 60.2775 13.9175 60.5925 13.7525C60.9075 13.5875 61.1438 13.3625 61.3013 13.0775C61.4588 12.7925 61.5375 12.47 61.5375 12.11C61.5375 11.75 61.455 11.4087 61.29 11.1312C61.125 10.8537 60.8888 10.6325 60.5813 10.4675V10.4675ZM92.1375 27.14H95.6475V15.395H92.1375V27.14ZM119.228 15.9012C118.35 15.3687 117.274 15.1025 115.999 15.1025C114.814 15.1025 113.771 15.3687 112.871 15.9012C111.971 16.4337 111.274 17.1725 110.779 18.1175C110.284 19.0625 110.036 20.12 110.036 21.29C110.036 22.565 110.288 23.6637 110.79 24.5862C111.293 25.5087 111.994 26.2175 112.894 26.7125C113.794 27.2075 114.851 27.455 116.066 27.455C117.521 27.455 118.729 27.1437 119.689 26.5212C120.649 25.8987 121.309 25.01 121.669 23.855H118.474C118.324 24.215 118.058 24.5 117.675 24.71C117.293 24.92 116.816 25.025 116.246 25.025C115.646 25.025 115.144 24.905 114.739 24.665C114.334 24.425 114.026 24.0912 113.816 23.6637C113.611 23.2462 113.492 22.7325 113.459 22.1225H121.894V21.695C121.894 20.36 121.669 19.1937 121.219 18.1962C120.769 17.1987 120.105 16.4337 119.228 15.9012V15.9012ZM113.456 20.0525V20.03C113.516 19.505 113.659 19.055 113.884 18.68C114.109 18.305 114.405 18.02 114.772 17.825C115.14 17.63 115.564 17.5325 116.044 17.5325C116.524 17.5325 116.944 17.6337 117.304 17.8362C117.664 18.0387 117.945 18.3312 118.147 18.7137C118.35 19.0962 118.466 19.5425 118.496 20.0525H113.456V20.0525ZM153.054 17.1275C152.694 16.4375 152.128 15.9237 151.355 15.5862C150.583 15.2487 149.596 15.08 148.396 15.08C147.196 15.08 146.285 15.2112 145.527 15.4737C144.77 15.7362 144.185 16.1262 143.772 16.6437C143.36 17.1612 143.094 17.7875 142.974 18.5225H146.326C146.416 18.1325 146.615 17.8325 146.923 17.6225C147.23 17.4125 147.676 17.3075 148.261 17.3075C148.741 17.3075 149.124 17.3862 149.409 17.5437C149.694 17.7012 149.896 17.9375 150.016 18.2525C150.136 18.5675 150.196 18.965 150.196 19.445V19.985H148.306C147.061 19.985 146.007 20.1237 145.145 20.4012C144.282 20.6787 143.626 21.0912 143.176 21.6387C142.726 22.1862 142.501 22.895 142.501 23.765C142.501 24.53 142.666 25.19 142.996 25.745C143.326 26.3 143.795 26.7237 144.402 27.0162C145.01 27.3087 145.726 27.455 146.551 27.455C147.166 27.455 147.718 27.3762 148.205 27.2187C148.693 27.0612 149.09 26.855 149.397 26.6C149.705 26.345 149.971 26.045 150.196 25.7H150.309L150.466 27.14H153.594V19.7375C153.594 18.6875 153.414 17.8175 153.054 17.1275V17.1275ZM150.196 22.6625C150.196 23.1725 150.091 23.615 149.881 23.99C149.671 24.365 149.397 24.6462 149.06 24.8337C148.722 25.0212 148.321 25.115 147.856 25.115C147.496 25.115 147.189 25.055 146.934 24.935C146.679 24.815 146.473 24.6387 146.315 24.4062C146.158 24.1737 146.079 23.8775 146.079 23.5175C146.079 23.0975 146.191 22.7637 146.416 22.5162C146.641 22.2687 146.964 22.0887 147.384 21.9762C147.804 21.8637 148.306 21.8075 148.891 21.8075H150.196V22.6625V22.6625ZM94.96 10.4675C94.6525 10.3025 94.3037 10.22 93.9137 10.22C93.4937 10.22 93.13 10.3025 92.8225 10.4675C92.515 10.6325 92.275 10.85 92.1025 11.12C91.93 11.39 91.8438 11.7125 91.8438 12.0875C91.8438 12.4625 91.93 12.7887 92.1025 13.0662C92.275 13.3437 92.5112 13.5687 92.8112 13.7412C93.1112 13.9137 93.4713 14 93.8913 14C94.3113 14 94.6562 13.9175 94.9712 13.7525C95.2862 13.5875 95.5225 13.3625 95.68 13.0775C95.8375 12.7925 95.9162 12.47 95.9162 12.11C95.9162 11.75 95.8338 11.4087 95.6688 11.1312C95.5038 10.8537 95.2675 10.6325 94.96 10.4675V10.4675ZM139.384 15.5975C138.791 15.2675 138.075 15.1025 137.235 15.1025C136.395 15.1025 135.716 15.26 135.109 15.575C134.501 15.89 133.98 16.3775 133.545 17.0375H133.455C133.2 16.4075 132.791 15.9275 132.229 15.5975C131.666 15.2675 130.987 15.1025 130.192 15.1025C129.397 15.1025 128.734 15.2637 128.156 15.5862C127.579 15.9087 127.095 16.385 126.705 17.015H126.592L126.525 15.395H123.24V27.14H126.75V20.39C126.75 19.52 126.911 18.875 127.234 18.455C127.556 18.035 128.032 17.825 128.662 17.825C129.292 17.825 129.75 18.0387 130.035 18.4662C130.32 18.8937 130.463 19.535 130.463 20.39V27.14H133.995V20.39C133.995 19.82 134.066 19.34 134.209 18.95C134.351 18.56 134.565 18.275 134.85 18.095C135.135 17.915 135.48 17.825 135.885 17.825C136.5 17.825 136.95 18.035 137.235 18.455C137.52 18.875 137.662 19.52 137.662 20.39V27.14H141.195V19.2875C141.195 18.4025 141.041 17.6487 140.734 17.0262C140.426 16.4037 139.976 15.9275 139.384 15.5975ZM106.964 15.6087C106.364 15.2712 105.629 15.1025 104.759 15.1025C103.949 15.1025 103.24 15.2637 102.632 15.5862C102.025 15.9087 101.541 16.3775 101.181 16.9925H101.069L101.001 15.395H97.6712V27.14H101.181V20.48C101.181 19.565 101.357 18.8937 101.71 18.4662C102.062 18.0387 102.591 17.825 103.296 17.825C104.001 17.825 104.474 18.0425 104.804 18.4775C105.134 18.9125 105.299 19.5725 105.299 20.4575V27.14H108.809V19.5125C108.809 18.5525 108.651 17.7462 108.336 17.0937C108.021 16.4412 107.564 15.9462 106.964 15.6087Z" fill="white"/>
</g>
<defs>
<clipPath id="clip0_13_8106">
<rect width="40" height="40" rx="20" fill="white"/>
</clipPath>
<clipPath id="clip1_13_8106">
<rect width="108.6" height="30" fill="white" transform="translate(45 5)"/>
</clipPath>
</defs>
</svg>
