<svg viewBox="0 0 24 24" fill="none" xmlns="http://www.w3.org/2000/svg">
    <path d="M17 7h1v1a1 1 0 102 0V7h1a1 1 0 100-2h-1V4a1 1 0 00-2 0v1h-1a1 1 0 100 2z"
        fill="#0f3cc9"></path>
    <path
        d="M14 6c.003-.336.037-.67.1-1H5a3 3 0 00-3 3v8a3 3 0 003 3h14a3 3 0 003-3v-6a5 5 0 01-5.24.47 4.89 4.89 0 01-2-1.84A5 5 0 0114 6zM8 8a1.5 1.5 0 011.47 1.79A1.49 1.49 0 018.29 11a1.49 1.49 0 01-.86-.08 1.55 1.55 0 01-.68-.56A1.5 1.5 0 018 8zm2 8H6a1 1 0 01-1-1 3 3 0 016 0 1 1 0 01-1 1z"
        fill="#0f3cc9"></path>
</svg>