<svg width="160" height="56" viewBox="0 0 160 56" fill="none" xmlns="http://www.w3.org/2000/svg">
<g clip-path="url(#clip0_1526_135897)">
<mask id="mask0_1526_135897" style="mask-type:luminance" maskUnits="userSpaceOnUse" x="0" y="0" width="160" height="56">
<path d="M159.6 0H0V56H159.6V0Z" fill="white"/>
</mask>
<g mask="url(#mask0_1526_135897)">
<path d="M28 0H131.6C147.064 0 159.6 12.5356 159.6 28C159.6 43.4644 147.064 56 131.6 56H28C12.5356 56 0 43.4644 0 28C0 12.5356 12.5356 0 28 0Z" fill="#CD3D00"/>
<path d="M74.2311 22.6855H62.3171L61.5527 26.2947H65.4027L63.2355 36.5483H67.6091L69.7763 26.2947H73.4471L74.2311 22.6855ZM85.4339 23.1111C84.7311 22.8227 83.8855 22.6799 82.8971 22.6799H75.8355L72.9067 36.5427H77.2803L78.3023 31.7463H79.4475C79.8087 31.7463 80.1195 31.7967 80.3799 31.8975C80.6403 31.9983 80.8503 32.1355 81.0099 32.3091C81.2115 32.5499 81.3515 32.9223 81.4327 33.4235C81.5111 33.9247 81.5391 34.5435 81.5111 35.2799C81.4831 35.7335 81.4439 36.1535 81.3907 36.5455H85.9659C86.0051 35.0083 85.9659 33.8239 85.8539 32.9951C85.7419 32.1635 85.5375 31.5587 85.2435 31.1695C84.9467 30.7803 84.5267 30.4863 83.9779 30.2847V30.2455C84.5519 30.1111 85.1175 29.8843 85.6663 29.5623C86.2123 29.2403 86.6715 28.7979 87.0383 28.2379C87.4079 27.6751 87.5899 27.0059 87.5899 26.2303C87.5899 25.5079 87.4079 24.8807 87.0383 24.3431C86.6715 23.8083 86.1367 23.3967 85.4339 23.1083V23.1111ZM82.5751 28.1707C82.4015 28.4451 82.1439 28.6579 81.8107 28.8119C81.4775 28.9659 81.0687 29.0415 80.5871 29.0415H80.5843H78.4787L79.1619 25.8719H80.9679C81.5699 25.8719 82.0319 25.9727 82.3539 26.1827C82.6731 26.3899 82.8355 26.7343 82.8355 27.2159C82.8355 27.5771 82.7487 27.8963 82.5751 28.1707ZM138.908 31.5279H141.426C141.342 31.8611 141.213 32.1579 141.036 32.4127C140.796 32.7599 140.488 33.0287 140.112 33.2051C139.74 33.3871 139.331 33.4767 138.889 33.4767C138.354 33.4767 137.9 33.3675 137.534 33.1463C137.167 32.9223 136.892 32.6115 136.71 32.2111C136.531 31.8107 136.439 31.3599 136.439 30.8643C136.439 29.9403 136.579 29.1031 136.85 28.3527C137.125 27.6023 137.514 27.0059 138.015 26.5635C138.516 26.1239 139.102 25.9027 139.771 25.9027C140.334 25.9027 140.782 26.0315 141.118 26.2835C141.451 26.5383 141.675 26.8995 141.781 27.3699H145.998C145.892 26.2835 145.572 25.3679 145.046 24.6175C144.514 23.8671 143.808 23.3099 142.924 22.9403C142.042 22.5735 141.022 22.3887 139.874 22.3887C138.374 22.3887 137.018 22.7611 135.803 23.5031C134.591 24.2451 133.642 25.2727 132.95 26.5859C132.261 27.8963 131.92 29.3691 131.92 31.0043C131.92 32.1831 132.18 33.2191 132.701 34.1067C133.224 34.9971 133.969 35.6859 134.941 36.1759C135.912 36.6659 137.06 36.9123 138.385 36.9123C139.818 36.9123 141.067 36.6211 142.131 36.0387C143.198 35.4563 144.044 34.6275 144.674 33.5579C145.301 32.4855 145.707 31.2255 145.88 29.7807L145.998 28.7755H139.491L138.908 31.5279ZM130.248 25.9447L130.931 22.7135H119.983L119.927 22.8815C120.77 23.2399 121.24 24.1919 120.952 25.2027C120.902 25.3735 119.143 30.6683 119.143 30.6683H122.738C122.99 30.4275 123.268 30.2455 123.562 30.1251C123.858 30.0075 124.217 29.9459 124.645 29.9459C124.992 29.9459 125.3 30.0103 125.561 30.1363C125.824 30.2651 126.02 30.4555 126.154 30.7103C126.289 30.9623 126.356 31.2591 126.356 31.5923C126.356 31.9927 126.275 32.3539 126.115 32.6675C125.956 32.9811 125.718 33.2275 125.404 33.4011C125.09 33.5747 124.718 33.6643 124.29 33.6643C123.73 33.6643 123.282 33.5635 122.957 33.3619C122.626 33.1603 122.436 32.8803 122.383 32.5163H118.384C118.317 33.3731 118.491 34.1291 118.905 34.7843C119.32 35.4423 119.972 35.9463 120.854 36.3019C121.736 36.6575 122.828 36.8339 124.127 36.8339C125.426 36.8339 126.51 36.6071 127.459 36.1507C128.411 35.6943 129.15 35.0559 129.671 34.2327C130.195 33.4095 130.452 32.4631 130.452 31.3907C130.452 30.5619 130.293 29.8395 129.971 29.2207C129.652 28.6047 129.198 28.1371 128.616 27.8151C128.033 27.4931 127.361 27.3307 126.597 27.3307C125.992 27.3307 125.443 27.4063 124.95 27.5519C124.458 27.7003 123.996 27.9131 123.564 28.1959H123.503L124.245 25.9447H130.251H130.248ZM98.1879 22.6855L96.4603 30.8923C96.3259 31.5083 96.1663 31.9927 95.9787 32.3483C95.7939 32.7039 95.5531 32.9587 95.2591 33.1211C94.9623 33.2807 94.5983 33.3591 94.1531 33.3591C93.7079 33.3591 93.3271 33.2723 93.0415 33.0959C92.7531 32.9223 92.5627 32.6535 92.4703 32.2839C92.3779 31.9171 92.3891 31.4523 92.5123 30.8895L94.2567 22.6827H89.8831L88.1387 30.8895C87.8587 32.1859 87.9007 33.2779 88.2703 34.1711C88.6371 35.0615 89.2951 35.7335 90.2443 36.1871C91.1935 36.6407 92.4171 36.8703 93.9179 36.8703C95.3095 36.8703 96.4603 36.6547 97.3759 36.2291C98.2943 35.8035 99.0223 35.1735 99.5655 34.3419C100.106 33.5131 100.509 32.4771 100.778 31.2339L102.564 22.6855H98.1907H98.1879ZM101.346 36.5483H112.866L113.566 33.2583H106.426L106.868 31.1527H113.028L113.689 28.1035H107.509L107.968 25.9755H114.688L115.391 22.6855H104.275L101.346 36.5483Z" fill="white"/>
<mask id="mask1_1526_135897" style="mask-type:luminance" maskUnits="userSpaceOnUse" x="4" y="4" width="48" height="48">
<path d="M51.8002 4.2002H4.2002V51.8002H51.8002V4.2002Z" fill="white"/>
</mask>
<g mask="url(#mask1_1526_135897)">
<path d="M51.8002 28.0002C51.8002 14.8558 41.1446 4.2002 28.0002 4.2002C14.8558 4.2002 4.2002 14.8558 4.2002 28.0002C4.2002 41.1446 14.8558 51.8002 28.0002 51.8002C41.1446 51.8002 51.8002 41.1446 51.8002 28.0002Z" fill="#FA7D19"/>
<path d="M21.0146 18.5547H20.2213C18.7157 18.5547 17.8933 19.4036 17.8933 21.1018V29.2916C17.8933 31.4001 17.1811 32.1401 15.5102 32.1401C14.1959 32.1401 13.128 31.5645 12.2787 30.5239C12.1963 30.4146 10.4717 31.2357 10.4717 33.2631C10.4717 35.454 12.5247 36.7965 16.3335 36.7965C20.9613 36.7965 23.4004 34.4681 23.4004 29.374V21.1018C23.3977 19.4058 22.5762 18.5547 21.0146 18.5547ZM39.4596 22.5536C34.9672 22.5536 31.982 25.4021 31.982 29.6495C31.982 34.0049 34.857 36.7992 39.3768 36.7992C43.8679 36.7992 46.8253 34.0049 46.8253 29.6777C46.8279 25.4021 43.8966 22.5536 39.4596 22.5536ZM39.4046 32.7695C37.6508 32.7695 36.4463 31.4825 36.4463 29.6473C36.4463 27.8402 37.6804 26.5524 39.4046 26.5524C41.1287 26.5524 42.3624 27.8402 42.3624 29.6751C42.3628 31.4548 41.1028 32.7695 39.4046 32.7695ZM28.1864 22.6902H27.6377C26.2965 22.6902 25.2832 23.3196 25.2832 25.2377V34.0022C25.2832 35.9472 26.2696 36.5502 27.6932 36.5502H28.2415C29.5835 36.5502 30.5417 35.8921 30.5417 34.0022V25.2377C30.5417 23.2658 29.6113 22.6902 28.1864 22.6902ZM27.8854 16.3369C26.1867 16.3369 25.1188 17.296 25.1188 18.8024C25.1188 20.3353 26.2149 21.2939 27.9673 21.2939C29.6655 21.2939 30.7339 20.3353 30.7339 18.8024C30.7339 17.2695 29.6382 16.3369 27.8854 16.3369Z" fill="white"/>
</g>
</g>
</g>
<defs>
<clipPath id="clip0_1526_135897">
<rect width="160" height="56" fill="white"/>
</clipPath>
</defs>
</svg>
